<?xml version="1.0" encoding="UTF-8"?>
<svg id="Layer_1" data-name="Layer 1" xmlns="http://www.w3.org/2000/svg" viewBox="0 0 807.03 165.05">
  <defs>
    <style>
      .cls-1 {
        fill: #fff;
      }
    </style>
  </defs>
  <g>
    <path class="cls-1" d="m259.26,87.49l.6-.13c5.07-1.01,9.5-3.12,13.26-6.31,3.73-3.15,6.68-7.11,8.73-11.71,2.08-4.6,3.12-9.6,3.12-14.8,0-4.2-.84-8.36-2.48-12.42-1.64-4.06-3.99-7.79-6.98-11.11-3.02-3.32-6.58-6.01-10.6-7.95-3.99-1.95-8.46-2.92-13.32-2.92h-47.86v110.01h10.44v-40.91h34.43l.13.2,26.75,40.71h11.71l-27.92-42.66Zm-45.1-7.08V28.99h36.78c4.36,0,8.36,1.17,11.91,3.56,3.52,2.38,6.38,5.54,8.49,9.36,2.11,3.86,3.19,8.09,3.19,12.62s-.94,8.66-2.78,12.59c-1.85,3.96-4.5,7.18-7.85,9.6-3.39,2.45-7.42,3.69-11.98,3.69h-37.76Z"/>
    <path class="cls-1" d="m371.45,69.33c-3.52-6.14-8.36-11.18-14.43-14.97-6.07-3.76-13.29-5.67-21.44-5.67s-15.1,1.88-21.35,5.6c-6.24,3.73-11.18,8.76-14.73,14.97-3.52,6.21-5.34,13.12-5.34,20.54,0,5.74,1.04,11.18,3.12,16.18,2.05,5,4.97,9.5,8.66,13.32,3.72,3.83,8.15,6.88,13.22,9.09,5.1,2.18,10.67,3.29,16.58,3.29,5.4,0,10.54-.84,15.24-2.55,4.7-1.68,8.86-4.09,12.32-7.18,3.36-2.92,5.91-6.24,7.59-9.87l-8.66-2.28c-1.98,4.3-5.44,7.82-10.27,10.5-4.9,2.72-10.2,4.09-15.71,4.09s-10.5-1.34-15.1-3.99c-4.6-2.68-8.39-6.31-11.24-10.87-2.89-4.53-4.6-9.8-5.13-15.64l-.07-.44h71.92c.03-.37.07-.84.07-1.38v-2.42c0-7.32-1.78-14.16-5.24-20.34Zm-67.05,17.32l.03-.47c.44-5.81,2.11-11.04,4.97-15.57,2.89-4.5,6.64-8.09,11.18-10.64,4.56-2.55,9.66-3.83,15.17-3.83s10.64,1.28,15.27,3.83c4.6,2.55,8.36,6.11,11.24,10.57,2.85,4.46,4.53,9.73,4.97,15.64l.03.47h-62.86Z"/>
    <path class="cls-1" d="m445.52,97.02c-2.52-2.62-6.14-4.8-10.77-6.48-4.67-1.68-10.2-3.39-16.54-5.03-4.4-1.24-8.16-2.42-11.14-3.49-3.05-1.11-5.37-2.52-6.91-4.16-1.58-1.68-2.38-4.03-2.38-7.01,0-3.62,1.04-6.51,3.12-8.59,2.01-2.08,4.66-3.56,7.82-4.46,3.15-.87,6.48-1.34,9.93-1.34,5.07,0,9.76.84,13.89,2.45,4.03,1.58,7.55,3.99,10.54,7.15l4.8-6.51c-3.02-3.32-6.95-6.01-11.68-7.89-4.87-1.95-10.57-2.95-16.91-2.95-5.81,0-11.14.91-15.87,2.68-4.67,1.78-8.39,4.4-11.08,7.79-2.65,3.39-3.99,7.72-3.99,12.89,0,4.13.97,7.52,2.89,10.07,1.91,2.55,4.83,4.7,8.66,6.38,3.89,1.68,8.76,3.32,14.53,4.87,5.14,1.24,9.63,2.42,13.29,3.49,3.72,1.11,6.64,2.55,8.66,4.3,2.08,1.78,3.12,4.36,3.12,7.69,0,4.87-2.11,8.66-6.31,11.28-4.13,2.55-9.57,3.83-16.14,3.83-5.4,0-10.57-.97-15.37-2.92-4.67-1.88-9.36-4.9-13.99-9.03l-4.06,6.81c4.16,4.26,9.2,7.52,14.9,9.63,5.84,2.18,12.21,3.26,18.99,3.26,9.53,0,17.32-2.11,23.09-6.28,5.77-4.13,8.69-9.97,8.69-17.35,0-4.73-1.27-8.42-3.76-11.04Z"/>
    <path class="cls-1" d="m527.15,49.97l-28.59,70.85-31.04-70.85h-10.67l36.35,80.68-.07.17c-2.85,6.71-5.14,11.98-6.75,15.57-1.64,3.59-3.05,5.97-4.26,7.25-1.24,1.31-2.58,2.08-3.96,2.32-.64.2-1.68.27-3.12.24-1.27-.07-2.58-.13-3.93-.2v8.69c1.21.17,2.28.3,3.22.34,1.01.07,1.98.03,2.92-.07,3.19-.1,5.84-.64,7.99-1.61,2.15-.94,3.96-2.28,5.44-3.93,1.44-1.68,2.55-3.49,3.29-5.4l43.23-104.04h-10.04Z"/>
    <path class="cls-1" d="m620.19,121.25c-.7-.77-1.07-1.95-1.07-3.49V17.01h-10.14v51.18l-.77-1.28c-3.05-5-7.38-9.36-12.82-12.89-5.44-3.52-11.65-5.34-18.53-5.34-7.28,0-13.86,1.91-19.56,5.67-5.71,3.79-10.24,8.89-13.46,15.14-3.22,6.28-4.87,13.29-4.87,20.84,0,5.3,1.01,10.5,2.95,15.47,1.98,4.93,4.77,9.43,8.29,13.29,3.56,3.89,7.79,6.98,12.59,9.23,4.8,2.21,10.13,3.36,15.84,3.36,6.01,0,11.91-1.54,17.48-4.63,5.6-3.05,10.1-7.28,13.39-12.48l.77-1.24v9.43c0,1.85.8,3.59,2.45,5.13,1.61,1.61,3.52,2.45,5.67,2.55,1.11.1,2.62,0,4.56-.27v-7.69c-1.21-.13-2.15-.57-2.79-1.24Zm-11.21-18.42c-.44,2.72-1.58,5.4-3.46,7.92-1.85,2.52-4.16,4.7-6.95,6.54-2.72,1.81-5.67,3.26-8.69,4.3s-6.01,1.58-8.83,1.58c-4.43,0-8.62-.84-12.42-2.52-3.76-1.64-7.18-4.06-10.1-7.15-2.92-3.09-5.2-6.64-6.74-10.61-1.58-3.93-2.38-8.15-2.38-12.55,0-4.16.7-8.26,2.11-12.22,1.41-3.96,3.46-7.55,6.11-10.67,2.65-3.12,5.87-5.64,9.56-7.45,3.69-1.85,7.85-2.78,12.42-2.78,3.89,0,7.89.94,11.85,2.75,3.93,1.85,7.52,4.33,10.64,7.38,3.15,3.09,5.47,6.54,6.88,10.3v25.17Z"/>
    <path class="cls-1" d="m709.77,121.25c-.7-.74-1.07-1.91-1.07-3.49V49.97h-10.1l-.03,50.71c-1.61,4.5-4.03,8.49-7.15,11.88-3.15,3.39-6.78,6.04-10.84,7.85-4.06,1.81-8.32,2.75-12.65,2.75-6.54,0-11.54-2.35-14.9-7.01-3.32-4.6-5-11.65-5-20.91v-45.27h-10.1v47.15c0,11.34,2.25,20.07,6.68,25.87,4.39,5.77,11.01,8.69,19.63,8.69,7.18,0,13.96-1.75,20.14-5.24,6.18-3.46,11.14-8.32,14.73-14.46l.74-1.24.37,12.32c.1,1.98.87,3.62,2.35,5,1.48,1.38,3.29,2.18,5.34,2.38.57,0,1.27-.03,2.01-.07.67-.07,1.54-.13,2.65-.2v-7.69c-1.17-.13-2.12-.57-2.79-1.24Z"/>
    <path class="cls-1" d="m801.8,69.33c-3.49-6.14-8.36-11.18-14.43-14.97-6.08-3.76-13.29-5.67-21.41-5.67s-15.13,1.88-21.38,5.6c-6.24,3.73-11.18,8.76-14.73,14.97-3.52,6.21-5.34,13.12-5.34,20.54,0,5.74,1.04,11.18,3.12,16.18,2.05,5,4.97,9.5,8.69,13.32,3.69,3.83,8.16,6.88,13.22,9.09,5.07,2.18,10.64,3.29,16.55,3.29,5.4,0,10.54-.84,15.24-2.55,4.7-1.68,8.86-4.09,12.35-7.18,3.32-2.92,5.87-6.24,7.55-9.87l-8.66-2.28c-1.98,4.3-5.44,7.82-10.24,10.5-4.93,2.72-10.24,4.09-15.74,4.09s-10.5-1.34-15.1-3.99c-4.6-2.68-8.39-6.31-11.24-10.87-2.89-4.53-4.6-9.8-5.14-15.64l-.03-.44h71.89c.03-.37.07-.84.07-1.38v-2.42c0-7.32-1.75-14.16-5.24-20.34Zm-67.05,17.32l.03-.47c.44-5.81,2.12-11.04,4.97-15.57,2.89-4.5,6.64-8.09,11.18-10.64,4.57-2.55,9.66-3.83,15.17-3.83s10.67,1.28,15.27,3.83c4.6,2.55,8.39,6.11,11.24,10.57,2.89,4.46,4.53,9.73,4.97,15.64l.03.47h-62.86Z"/>
  </g>
  <path class="cls-1" d="m28.18,147.15C12.64,147.15,0,134.51,0,118.97V28.18C0,12.64,12.64,0,28.18,0h90.8c15.54,0,28.18,12.64,28.18,28.18v90.8c0,15.54-12.64,28.18-28.18,28.18H28.18Zm88.09-10.43c11.28,0,20.45-9.17,20.45-20.45v-30.25h-10.62c-11.28,0-20.45,9.17-20.45,20.45v30.25h10.62ZM10.43,116.27c0,11.28,9.17,20.45,20.45,20.45h64.34v-33.43c0-17.49-14.24-31.72-31.75-31.72H10.43v44.7ZM99.98,11.64c2.43,1.93,4.43,4.26,5.95,6.93,1.77,3.08,2.83,6.53,3.16,10.24v26.31c-.05.99-.34,9.74,6.55,15.75,4.68,4.12,10.04,4.73,12.81,4.73.46,0,.82-.02,1.04-.03h7.23V30.88c0-2-.44-7.2-4.49-12.29-4.44-5.58-11.16-7.52-16.01-8.16l-.04-.13v.12h-17.74s1.53,1.22,1.53,1.22Zm-21.77,49.49c11.26,0,20.42-9.17,20.42-20.45v-8.56c0-11.96-9.72-21.69-21.66-21.69H30.88c-11.28,0-20.45,9.17-20.45,20.45v30.25s67.77,0,67.77,0Z"/>
</svg>